<svg width="262" height="94" viewBox="0 0 262 94" fill="none" xmlns="http://www.w3.org/2000/svg">
<path d="M261.072 26.8668C261.628 26.2241 262 25.4912 262 24.5726C262.007 23.6609 261.677 22.7781 261.072 22.091C260.421 21.4464 259.591 21.0786 258.661 21.0786C257.736 21.0786 256.996 21.4473 256.251 22.091C255.605 22.7346 255.323 23.5612 255.323 24.5726C255.323 25.4912 255.605 26.2241 256.251 26.8668C256.996 27.5104 257.736 27.7854 258.661 27.7854C259.591 27.7854 260.421 27.5104 261.072 26.8668ZM261.26 60.6773V31.0017H256.252L256.346 60.6773H261.26ZM249.669 32.4729L248.836 32.1042C246.61 30.8169 243.92 30.1751 240.677 30.1751C237.153 30.1751 234.28 31.0008 232.147 32.655C231.035 33.4825 230.293 34.3082 229.737 35.4125C229.182 36.4221 228.901 37.4327 228.901 38.6262C228.901 40.6481 229.831 42.3014 231.501 43.7707C233.074 45.1499 235.391 46.2524 238.451 47.1701C241.046 47.9967 242.808 48.8242 243.92 49.6518C244.849 50.5712 245.406 51.5808 245.406 52.8663C245.406 54.2446 244.664 55.3471 243.364 56.2666C242.065 57.0022 240.209 57.461 237.895 57.461C235.389 57.461 232.889 56.8173 230.293 55.6211L229.643 55.1641L227.511 59.0214L228.255 59.3892C231.128 60.7675 234.282 61.4093 237.711 61.4093C241.42 61.4093 244.479 60.6746 246.889 59.0214C248.094 58.2858 248.929 57.2771 249.579 56.2675C250.224 55.0731 250.505 53.7849 250.505 52.4994V52.4047C250.505 50.2007 249.579 48.2707 247.816 46.7103C246.335 45.4258 243.923 44.3215 240.77 43.4038C238.359 42.5736 236.598 41.7478 235.578 41.1051C234.465 40.2767 234.002 39.3599 234.002 38.3494C234.002 37.1541 234.465 36.2373 235.488 35.4107C236.598 34.6742 238.079 34.2145 240.028 34.2145C242.717 34.2145 244.942 34.6742 246.704 35.7767L247.353 36.2364L249.669 32.4729ZM219.447 34.6769C216.016 31.7373 211.753 30.176 206.836 30.176C202.016 30.176 198.029 31.6445 194.786 34.493C191.168 37.7103 189.316 42.1184 189.316 47.9066V70.9664H194.134V56.0836C195.619 57.7359 197.476 59.0232 199.699 59.9436C201.924 60.9523 204.333 61.4111 206.932 61.4111C211.845 61.4111 216.016 59.9436 219.447 56.8164C222.971 53.7849 224.729 50.1115 224.729 45.7917C224.729 41.3828 222.971 37.7094 219.447 34.6769ZM206.836 34.3082C210.454 34.3082 213.604 35.4125 216.014 37.6156C218.519 39.8206 219.817 42.5754 219.817 45.8864C219.817 49.0072 218.703 51.5799 216.478 53.7849C214.069 56.0818 210.824 57.2771 206.931 57.2771C203.034 57.2771 199.881 56.0827 197.379 53.7849C195.063 51.4898 193.951 48.9171 193.951 45.8864C193.951 42.8521 195.064 40.1893 197.379 37.9825C199.792 35.5955 202.944 34.3082 206.836 34.3082ZM181.619 36.1481C178.377 32.1042 173.74 30.1751 167.527 30.1751C162.892 30.1751 158.903 31.4615 155.474 34.2163C151.767 37.0649 149.914 40.9249 149.914 45.7016C149.914 48.3654 150.654 51.0301 152.23 53.5099C153.622 55.8979 155.754 57.8288 158.628 59.2972C161.501 60.6764 164.56 61.3183 167.898 61.3183C171.051 61.3183 174.016 60.6764 176.892 59.2972C179.763 57.8288 181.897 55.8979 183.287 53.5099L184.215 51.9477H178.839C177.725 53.5099 176.146 54.7972 174.111 55.8068C172.071 56.8164 169.846 57.2771 167.713 57.2771C164.747 57.2771 162.243 56.5397 160.017 55.0703C157.792 53.509 156.31 51.5799 155.382 49.0072C158.44 47.8128 161.501 47.1691 164.84 47.1691L169.846 47.719L177.633 48.4555C180.043 48.4555 182.086 48.0877 183.937 47.5379C184.68 47.2611 185.142 46.8933 185.33 46.4336C185.606 46.0667 185.606 45.4258 185.423 44.6875C184.864 41.3828 183.659 38.536 181.619 36.1481ZM180.324 43.6833L180.416 43.8654L177.726 44.2323L171.886 43.6824L163.727 43.0369H162.336C159.74 43.2208 157.33 43.6824 155.011 44.5072C155.381 41.1069 157.052 38.4414 159.833 36.5141C162.149 35.042 164.747 34.2163 167.527 34.2163C171.883 34.2163 175.222 35.5946 177.726 38.3512C179.025 40.0063 179.95 41.7506 180.324 43.6833ZM128.31 30.1751C123.581 30.1751 119.502 31.6436 116.258 34.4921C112.642 37.7094 110.88 42.1175 110.88 47.9047L110.788 70.9646H115.795L115.701 56.0818C117.185 57.735 119.039 59.0214 121.172 59.9418C123.489 60.9514 125.9 61.4084 128.495 61.4084C133.409 61.4084 137.581 59.9418 141.012 56.8155C144.535 53.784 146.203 50.1088 146.203 45.7899C146.203 41.3801 144.535 37.7067 141.103 34.6742C137.581 31.7364 133.409 30.1751 128.31 30.1751ZM118.854 37.9834C121.357 35.5955 124.417 34.3082 128.31 34.3082C132.019 34.3082 135.079 35.4125 137.579 37.6156C140.085 39.8206 141.288 42.5754 141.288 45.8864C141.288 49.0072 140.177 51.5799 138.042 53.7849C135.634 56.0818 132.482 57.2771 128.403 57.2771C124.601 57.2771 121.357 56.0827 118.853 53.7849C116.628 51.4898 115.515 48.9171 115.515 45.8864C115.516 42.853 116.628 40.1902 118.854 37.9834Z" fill="#C0C0C0"/>
<path d="M75.7494 9.80433C75.3238 9.48505 74.92 9.13835 74.5404 8.7665C66.6101 3.22341 57.1401 0.254206 47.4356 0.268115C21.4029 0.268115 0.298997 21.1904 0.298997 46.9997C0.284606 57.057 3.55694 66.8485 9.62637 74.9091C25.4001 70.2935 39.162 62.2631 50.956 50.6567C62.7353 39.1058 71.0126 25.4346 75.7494 9.80433Z" fill="#C0C0C0"/>
<path d="M47.4356 93.7311C73.4664 93.7311 94.5704 72.806 94.5704 46.9986C94.5704 37.863 91.9246 29.3446 87.355 22.148C87.2351 22.0293 87.1274 21.8991 87.0335 21.7593C87.9926 24.8958 88.4784 28.1556 88.4749 31.433C88.4749 36.7359 87.2384 41.7548 84.8094 46.4542C82.4073 50.9172 79.0305 54.7927 74.9253 57.7984C71.6309 60.2064 67.6769 62.2475 63.0219 63.9207C59.3169 65.2645 54.4975 66.6537 48.527 67.9983L31.3109 71.8374C23.9918 73.4997 17.3258 75.2786 11.3875 77.1003C20.0332 87.2719 32.9719 93.7311 47.4356 93.7311Z" fill="#C0C0C0"/>
</svg>
