<svg xmlns="http://www.w3.org/2000/svg" xmlns:xlink="http://www.w3.org/1999/xlink" width="512" height="512" viewBox="0 0 512 512">
  <defs>
    <linearGradient id="linear-gradient" x1="1.217" x2="-0.254" y2="1.326" gradientUnits="objectBoundingBox">
      <stop offset="0" stop-color="#5985fe"/>
      <stop offset="1" stop-color="#4ef5e4"/>
    </linearGradient>
    <clipPath id="clip-Artboard_4">
      <rect width="512" height="512"/>
    </clipPath>
  </defs>
  <g id="Artboard_4" data-name="Artboard – 4" clip-path="url(#clip-Artboard_4)">
    <rect width="512" height="512"/>
    <g id="Group_11" data-name="Group 11" transform="translate(672.207 -1984.208)">
      <path id="Ellipse_1" data-name="Ellipse 1" d="M159.5,50.9a108.6,108.6,0,1,0,108.6,108.6A108.718,108.718,0,0,0,159.5,50.9m0-50.9A159.5,159.5,0,1,1,0,159.5,159.5,159.5,0,0,1,159.5,0Z" transform="translate(-577.513 2111.899)" fill="#fff"/>
      <path id="Path_14" data-name="Path 14" d="M0,0H50.9V311.6H0Z" transform="translate(-577.513 1959.794)" fill="#fff"/>
      <g id="Rectangle_26" data-name="Rectangle 26" transform="translate(-351 2335.833)" stroke="#000" stroke-width="12" fill="url(#linear-gradient)">
        <rect width="96.098" height="96.098" stroke="none"/>
        <rect x="-6" y="-6" width="108.098" height="108.098" fill="none"/>
      </g>
    </g>
  </g>
</svg>
