<svg width="468" height="468" viewBox="0 0 468 468" fill="none" xmlns="http://www.w3.org/2000/svg">
<path d="M323.885 362.47L327.587 359.808L326.896 357.441L328.065 356.6L331.136 367.196L329.857 368.115L320.661 361.925L321.83 361.085L323.885 362.47ZM324.857 363.138L329.51 366.296L327.926 360.931L324.857 363.138Z" fill="white"/>
<path d="M317.677 372.398C317.207 371.666 317.069 370.896 317.264 370.089C317.456 369.295 318.068 368.574 319.102 367.926L320.804 366.857L318.446 363.184L319.602 362.458L325.249 371.256L322.391 373.051C321.392 373.678 320.48 373.914 319.655 373.759C318.822 373.609 318.163 373.155 317.677 372.398ZM319.709 368.873C319.066 369.277 318.681 369.713 318.554 370.182C318.427 370.652 318.529 371.143 318.858 371.656C319.555 372.742 320.53 372.891 321.783 372.104L323.486 371.035L321.412 367.804L319.709 368.873Z" fill="white"/>
<path d="M309.391 376.887C308.965 376.129 308.873 375.353 309.116 374.559C309.355 373.779 310.01 373.097 311.08 372.512L312.844 371.548L310.708 367.742L311.906 367.087L317.023 376.205L314.061 377.823C313.025 378.388 312.1 378.569 311.286 378.364C310.463 378.165 309.831 377.672 309.391 376.887ZM311.631 373.493C310.964 373.857 310.553 374.27 310.399 374.73C310.244 375.19 310.316 375.687 310.615 376.219C311.246 377.344 312.211 377.551 313.51 376.842L315.274 375.878L313.395 372.529L311.631 373.493Z" fill="white"/>
<path d="M293.933 378.187L298.135 376.418L297.979 373.961L299.306 373.403L299.983 384.395L298.532 385.006L290.9 376.941L292.228 376.382L293.933 378.187ZM294.736 379.053L298.592 383.158L298.22 377.586L294.736 379.053Z" fill="white"/>
<path d="M281.983 379.904L283.274 379.459L291.289 385.503L288.465 377.672L289.756 377.228L293.307 387.077L292.017 387.521L284.007 381.491L286.826 389.308L285.535 389.753L281.983 379.904Z" fill="white"/>
<path d="M279.688 391.29C278.587 391.586 277.577 391.635 276.657 391.437C275.731 391.251 274.947 390.836 274.305 390.19C273.654 389.547 273.181 388.712 272.887 387.683C272.594 386.654 272.556 385.701 272.773 384.824C272.984 383.96 273.438 383.217 274.133 382.595C274.822 381.985 275.717 381.532 276.818 381.236L279.961 380.391L282.831 390.444L279.688 391.29ZM277.127 382.318C275.823 382.668 274.926 383.277 274.435 384.144C273.947 385.021 273.88 386.08 274.234 387.32C274.591 388.57 275.217 389.453 276.113 389.968C276.999 390.485 278.089 390.57 279.383 390.222L281.208 389.731L278.952 381.827L277.127 382.318Z" fill="white"/>
<path d="M253.021 396.226L254.323 385.466L255.836 385.242L259.605 393.19L260.733 384.517L262.229 384.281L266.821 394.184L265.381 394.397L261.688 385.983L260.633 395.1L259.119 395.324L255.312 386.957L254.475 396.011L253.021 396.226Z" fill="white"/>
<path d="M250.935 395.012L250.613 391.532L246.814 391.823L246.71 390.702L250.509 390.412L250.177 386.827L245.93 387.152L245.826 386.032L251.434 385.603L252.4 396.029L246.791 396.457L246.687 395.337L250.935 395.012Z" fill="white"/>
<path d="M238.022 391.555C237.641 391.501 237.291 391.352 236.973 391.107C236.645 390.863 236.385 390.557 236.193 390.19C235.991 389.823 235.883 389.43 235.869 389.01C235.852 388.481 235.972 387.999 236.228 387.564C236.484 387.14 236.868 386.799 237.38 386.54C237.882 386.292 238.483 386.162 239.183 386.151L243.083 386.086L243.42 396.536L239.671 396.598C238.961 396.609 238.352 396.499 237.845 396.268C237.337 396.046 236.952 395.738 236.689 395.342C236.426 394.946 236.287 394.499 236.271 393.999C236.251 393.379 236.404 392.862 236.731 392.446C237.048 392.041 237.478 391.744 238.022 391.555ZM241.91 392.046L239.615 392.084C238.975 392.094 238.485 392.252 238.145 392.558C237.805 392.863 237.643 393.281 237.66 393.811C237.677 394.341 237.866 394.752 238.225 395.047C238.585 395.341 239.095 395.482 239.755 395.471L242.019 395.434L241.91 392.046ZM239.34 387.273C238.66 387.284 238.135 387.453 237.765 387.779C237.396 388.105 237.22 388.553 237.239 389.123C237.257 389.702 237.472 390.154 237.883 390.477C238.293 390.81 238.834 390.971 239.504 390.96L241.874 390.921L241.754 387.233L239.34 387.273Z" fill="white"/>
<path d="M223.589 395.895C222.453 395.795 221.488 395.494 220.692 394.992C219.886 394.5 219.293 393.84 218.912 393.014C218.521 392.186 218.365 391.239 218.443 390.172C218.521 389.105 218.813 388.197 219.319 387.448C219.814 386.709 220.495 386.167 221.363 385.822C222.219 385.486 223.215 385.367 224.351 385.467L227.594 385.753L226.831 396.18L223.589 395.895ZM224.269 386.589C222.924 386.471 221.872 386.735 221.113 387.381C220.354 388.036 219.927 389.008 219.833 390.294C219.738 391.591 220.022 392.635 220.686 393.426C221.34 394.216 222.335 394.67 223.67 394.788L225.552 394.953L226.152 386.755L224.269 386.589Z" fill="white"/>
<path d="M214.65 393.689L215.122 390.226L211.354 389.659L211.506 388.544L215.274 389.112L215.76 385.545L211.547 384.91L211.699 383.796L217.262 384.633L215.848 395.007L210.285 394.17L210.437 393.055L214.65 393.689Z" fill="white"/>
<path d="M198.494 391.684L204.409 382.259L205.949 382.589L207.75 393.666L206.327 393.361L204.888 383.834L199.902 391.985L198.494 391.684Z" fill="white"/>
<path d="M195.144 389.523L196.045 386.146L192.376 385.122L192.666 384.035L196.335 385.059L197.263 381.581L193.16 380.435L193.45 379.348L198.868 380.861L196.169 390.977L190.751 389.464L191.041 388.377L195.144 389.523Z" fill="white"/>
<path d="M189.143 379.056L185.675 377.886L186.019 376.831L190.781 378.436L187.543 388.377L186.25 387.941L189.143 379.056Z" fill="white"/>
<path d="M179.155 373.973C180.053 374.338 180.79 374.881 181.365 375.601C181.937 376.33 182.291 377.159 182.427 378.089C182.551 379.025 182.425 379.967 182.049 380.915C181.673 381.863 181.122 382.627 180.397 383.206C179.66 383.792 178.837 384.142 177.93 384.259C177.02 384.385 176.115 384.266 175.217 383.9C174.309 383.531 173.569 382.981 172.998 382.252C172.423 381.533 172.072 380.71 171.944 379.783C171.817 378.857 171.943 377.915 172.323 376.958C172.703 376 173.255 375.232 173.98 374.652C174.705 374.073 175.522 373.72 176.433 373.594C177.34 373.477 178.247 373.603 179.155 373.973ZM178.718 375.074C178.042 374.799 177.372 374.71 176.71 374.808C176.038 374.901 175.433 375.179 174.895 375.64C174.348 376.097 173.921 376.712 173.615 377.483C173.305 378.264 173.194 379.007 173.28 379.711C173.353 380.421 173.596 381.044 174.008 381.578C174.42 382.113 174.968 382.52 175.654 382.799C176.339 383.077 177.013 383.168 177.676 383.071C178.338 382.973 178.943 382.696 179.49 382.238C180.025 381.786 180.447 381.17 180.757 380.389C181.063 379.618 181.179 378.877 181.106 378.167C181.023 377.453 180.776 376.829 180.364 376.294C179.943 375.756 179.394 375.349 178.718 375.074Z" fill="white"/>
<path d="M163.86 375.108C164.235 374.323 164.817 373.799 165.606 373.538C166.382 373.281 167.319 373.419 168.417 373.951L170.225 374.829L172.103 370.889L173.332 371.485L168.832 380.922L165.796 379.448C164.734 378.933 164.051 378.285 163.748 377.504C163.435 376.719 163.473 375.92 163.86 375.108ZM167.932 374.967C167.249 374.635 166.674 374.539 166.208 374.68C165.742 374.821 165.378 375.166 165.115 375.717C164.56 376.881 164.948 377.787 166.28 378.433L168.088 379.311L169.741 375.844L167.932 374.967Z" fill="white"/>
<path d="M150.948 371.189L156.055 362.152L157.24 362.83L153.432 369.568L160.236 364.542L161.069 365.018L160.262 373.489L164.077 366.737L165.262 367.415L160.155 376.451L158.879 375.722L159.767 366.347L152.211 371.911L150.948 371.189Z" fill="white"/>
<path d="M148.897 368.433L150.817 365.513L147.64 363.411L148.258 362.471L151.435 364.573L153.413 361.565L149.861 359.215L150.479 358.275L155.17 361.379L149.417 370.126L144.726 367.022L145.344 366.082L148.897 368.433Z" fill="white"/>
<path d="M141.668 351.684L142.758 352.506L142.14 362.462L147.143 355.809L148.234 356.63L141.941 364.998L140.85 364.177L141.46 354.232L136.465 360.874L135.375 360.052L141.668 351.684Z" fill="white"/>
<path d="M128.322 353.963L129.044 353.12L131.211 354.97L137.287 347.87L138.325 348.756L132.25 355.857L134.428 357.717L133.707 358.56L128.322 353.963Z" fill="white"/>
<path d="M126.063 344.557C125.323 345.258 124.5 345.722 123.594 345.946C122.681 346.178 121.785 346.167 120.905 345.912C120.018 345.65 119.239 345.169 118.569 344.468C117.781 343.644 117.293 342.736 117.105 341.743C116.916 340.75 117.054 339.766 117.517 338.789L118.647 339.971C118.391 340.614 118.329 341.251 118.462 341.882C118.589 342.507 118.915 343.093 119.44 343.643C119.944 344.17 120.52 344.527 121.168 344.712C121.816 344.897 122.482 344.892 123.168 344.697C123.846 344.509 124.489 344.126 125.099 343.549C125.701 342.978 126.117 342.356 126.346 341.684C126.568 341.019 126.602 340.36 126.448 339.707C126.294 339.054 125.965 338.464 125.46 337.936C124.935 337.387 124.366 337.031 123.753 336.867C123.126 336.704 122.484 336.734 121.826 336.958L120.696 335.776C121.692 335.37 122.683 335.285 123.669 335.521C124.649 335.764 125.532 336.297 126.32 337.121C126.991 337.822 127.439 338.616 127.665 339.504C127.877 340.392 127.849 341.28 127.579 342.17C127.309 343.059 126.804 343.855 126.063 344.557Z" fill="white"/>
<path d="M119.068 328.764C119.686 329.512 120.076 330.336 120.238 331.237C120.392 332.144 120.305 333.035 119.977 333.909C119.635 334.782 119.069 335.541 118.279 336.186C117.489 336.832 116.634 337.233 115.713 337.391C114.778 337.548 113.881 337.46 113.023 337.129C112.156 336.803 111.414 336.267 110.795 335.52C110.171 334.765 109.781 333.934 109.627 333.026C109.466 332.126 109.552 331.242 109.886 330.375C110.22 329.508 110.786 328.749 111.584 328.098C112.382 327.446 113.241 327.042 114.162 326.884C115.082 326.726 115.976 326.809 116.842 327.135C117.701 327.466 118.443 328.01 119.068 328.764ZM118.15 329.514C117.684 328.952 117.135 328.555 116.502 328.323C115.862 328.083 115.193 328.036 114.495 328.18C113.79 328.317 113.116 328.647 112.473 329.172C111.823 329.704 111.366 330.296 111.102 330.951C110.825 331.603 110.739 332.261 110.846 332.922C110.952 333.584 111.241 334.2 111.713 334.77C112.185 335.34 112.738 335.741 113.371 335.973C114.004 336.205 114.673 336.252 115.378 336.116C116.068 335.978 116.739 335.643 117.39 335.112C118.032 334.587 118.493 333.998 118.77 333.345C119.041 332.685 119.124 332.024 119.017 331.362C118.904 330.692 118.615 330.076 118.15 329.514Z" fill="white"/>
<path d="M100.454 321.171L108.969 315.234L109.759 316.347L103.41 320.774L111.757 319.16L112.313 319.942L107.958 327.203L114.32 322.767L115.11 323.88L106.595 329.817L105.744 328.618L110.559 320.581L101.297 322.357L100.454 321.171Z" fill="white"/>
<path d="M98.4895 312.031C99.2359 311.584 100.015 311.468 100.826 311.681C101.623 311.891 102.341 312.517 102.979 313.557L104.029 315.27L107.774 313.028L108.488 314.192L99.5178 319.563L97.7537 316.685C97.1369 315.679 96.9136 314.77 97.0838 313.957C97.2488 313.136 97.7173 312.494 98.4895 312.031ZM102.013 314.135C101.616 313.487 101.182 313.094 100.711 312.957C100.239 312.819 99.742 312.907 99.2187 313.221C98.1119 313.883 97.9453 314.846 98.7189 316.107L99.7695 317.821L103.064 315.848L102.013 314.135Z" fill="white"/>
<path d="M98.9009 301.999L101.042 306.025L103.502 305.7L104.178 306.971L93.1674 308.404L92.428 307.014L99.8963 298.919L100.572 300.19L98.9009 301.999ZM98.0978 302.853L94.2939 306.945L99.8724 306.19L98.0978 302.853Z" fill="white"/>
<path d="M96.0654 290.251L96.6258 291.495L91.2439 299.818L98.8796 296.501L99.44 297.746L89.8368 301.917L89.2765 300.673L94.6447 292.356L87.0227 295.667L86.4623 294.422L96.0654 290.251Z" fill="white"/>
<path d="M82.9205 284.886L90.2442 285.871L93.9567 284.536L94.4367 285.814L90.7243 287.149L85.8009 292.552L85.2681 291.134L89.3435 286.928L83.4533 286.304L82.9205 284.886Z" fill="white"/>
<path d="M78.7784 270.44L79.8544 270.167L80.5972 272.919L89.6557 270.622L90.0115 271.94L80.953 274.236L81.6998 277.002L80.6238 277.275L78.7784 270.44Z" fill="white"/>
<path d="M76.6317 260.021L86.9063 258.087L87.18 259.425L82.5218 260.301L83.5895 265.518L88.2477 264.642L88.5214 265.979L78.2468 267.912L77.9731 266.575L82.4839 265.726L81.4162 260.509L76.9054 261.358L76.6317 260.021Z" fill="white"/>
<path d="M83.4669 249.963L84.0836 254.481L86.5056 255.036L86.7004 256.463L75.8684 253.958L75.6554 252.397L85.4669 247.426L85.6616 248.853L83.4669 249.963ZM82.4175 250.482L77.4309 252.984L82.9288 254.227L82.4175 250.482Z" fill="white"/>
<path d="M74.5359 240.38L75.6439 240.314L75.8596 243.156L85.1879 242.598L85.2912 243.959L75.9629 244.517L76.1797 247.374L75.0717 247.44L74.5359 240.38Z" fill="white"/>
<path d="M74.7978 221.007L85.1674 221.471L85.1273 222.835L77.395 222.489L85.0258 226.284L84.9976 227.244L77.1485 230.36L84.8957 230.707L84.8556 232.071L74.486 231.607L74.5292 230.138L83.2135 226.683L74.755 222.461L74.7978 221.007Z" fill="white"/>
<path d="M83.7104 214.042L83.2533 218.579L85.4788 219.681L85.3344 221.114L75.3869 216.161L75.5448 214.594L86.2486 212.04L86.1043 213.473L83.7104 214.042ZM82.5686 214.303L77.134 215.578L82.1897 218.064L82.5686 214.303Z" fill="white"/>
<path d="M87.4483 205.268L82.054 208.679L86.7499 209.516L86.5285 210.863L76.2359 209.028L76.4573 207.681L81.2271 208.532L77.158 203.418L77.4379 201.716L81.8227 207.312L87.7378 203.507L87.4483 205.268Z" fill="white"/>
<path d="M79.3478 198.503L82.7478 199.312L83.5839 195.595L84.6783 195.856L83.8422 199.573L87.3444 200.406L88.2792 196.25L89.3736 196.511L88.1393 201.999L77.9539 199.574L79.1882 194.086L80.2826 194.347L79.3478 198.503Z" fill="white"/>
<path d="M91.1146 190.739C90.9242 191.402 90.6381 191.964 90.2564 192.423C89.8678 192.871 89.4248 193.182 88.9273 193.356C88.4202 193.528 87.8923 193.537 87.3435 193.383L87.745 191.985C88.2282 192.077 88.681 192.004 89.1033 191.765C89.5188 191.514 89.8204 191.061 90.0081 190.408C90.1875 189.783 90.175 189.247 89.9705 188.799C89.7593 188.34 89.4093 188.037 88.9207 187.89C88.5375 187.776 88.1958 187.788 87.8956 187.928C87.5954 188.068 87.3375 188.278 87.1218 188.557C86.9062 188.837 86.6493 189.225 86.351 189.72C85.9882 190.332 85.6625 190.814 85.3742 191.166C85.0886 191.508 84.7224 191.769 84.2755 191.948C83.8219 192.115 83.2837 192.106 82.661 191.919C82.1149 191.756 81.6711 191.472 81.3296 191.067C80.9881 190.662 80.7742 190.175 80.6878 189.607C80.6041 189.028 80.6562 188.412 80.8438 187.759C81.1143 186.817 81.5698 186.118 82.2103 185.663C82.8536 185.198 83.5743 185.043 84.3724 185.198L83.9584 186.64C83.5614 186.573 83.1681 186.675 82.7786 186.944C82.3795 187.211 82.0958 187.638 81.9274 188.224C81.7701 188.772 81.7855 189.262 81.9735 189.694C82.152 190.123 82.4951 190.414 83.0029 190.566C83.3669 190.675 83.6929 190.662 83.9807 190.529C84.2714 190.387 84.5218 190.185 84.7319 189.924C84.9351 189.651 85.1921 189.264 85.5027 188.762C85.8751 188.153 86.2103 187.674 86.5083 187.325C86.7966 186.973 87.169 186.708 87.6254 186.532C88.0723 186.353 88.6118 186.357 89.2441 186.547C89.7327 186.693 90.1553 186.96 90.5119 187.349C90.8685 187.737 91.1078 188.227 91.2297 188.816C91.3517 189.406 91.3133 190.047 91.1146 190.739Z" fill="white"/>
<path d="M87.7142 169.114L92.4797 174.74L96.1315 176.232L95.6261 177.5L91.9743 176.008L84.682 176.722L85.2429 175.315L91.0995 174.921L87.1533 170.521L87.7142 169.114Z" fill="white"/>
<path d="M100.257 167.386C99.8384 168.261 99.254 168.96 98.504 169.485C97.745 170.005 96.8999 170.299 95.9688 170.369C95.033 170.424 94.1066 170.229 93.1897 169.782C92.2727 169.335 91.5495 168.727 91.0199 167.957C90.4857 167.174 90.1891 166.323 90.13 165.405C90.062 164.482 90.2374 163.583 90.6562 162.708C91.0794 161.824 91.6705 161.122 92.4295 160.602C93.1795 160.077 94.0179 159.785 94.9447 159.725C95.8716 159.665 96.7979 159.86 97.7239 160.312C98.6498 160.763 99.3776 161.373 99.9071 162.143C100.437 162.912 100.735 163.759 100.803 164.682C100.863 165.601 100.68 166.502 100.257 167.386ZM99.192 166.867C99.5072 166.208 99.6373 165.543 99.5821 164.871C99.5312 164.19 99.2938 163.563 98.87 162.989C98.4505 162.406 97.8676 161.933 97.1215 161.57C96.3663 161.202 95.6367 161.035 94.9325 161.071C94.2236 161.092 93.5911 161.29 93.035 161.664C92.4789 162.039 92.0411 162.559 91.7215 163.227C91.402 163.894 91.2698 164.564 91.325 165.236C91.3802 165.908 91.6175 166.536 92.0371 167.118C92.4519 167.687 93.0369 168.156 93.7921 168.524C94.5382 168.887 95.2657 169.058 95.9746 169.037C96.6877 169.006 97.3224 168.803 97.8785 168.429C98.4389 168.046 98.8768 167.525 99.192 166.867Z" fill="white"/>
<path d="M94.6008 155.487L100.339 158.778C101.145 159.241 101.855 159.389 102.467 159.221C103.085 159.045 103.593 158.605 103.993 157.9C104.388 157.204 104.501 156.549 104.332 155.934C104.169 155.309 103.684 154.766 102.877 154.303L97.1394 151.012L97.8129 149.825L103.538 153.109C104.292 153.542 104.844 154.059 105.191 154.662C105.531 155.26 105.678 155.893 105.633 156.559C105.594 157.216 105.391 157.867 105.026 158.51C104.661 159.154 104.205 159.665 103.657 160.042C103.115 160.411 102.501 160.601 101.817 160.612C101.128 160.609 100.407 160.391 99.6522 159.958L93.9273 156.674L94.6008 155.487Z" fill="white"/>
<path d="M110.921 148.958L105.987 148.693L105.084 150.074L108.656 152.423L107.909 153.566L99.1745 147.82L101.021 144.995C101.454 144.334 101.93 143.851 102.451 143.548C102.978 143.236 103.507 143.093 104.039 143.12C104.571 143.147 105.084 143.322 105.577 143.647C106.178 144.042 106.594 144.567 106.823 145.221C107.058 145.866 107.024 146.586 106.72 147.379L111.816 147.59L110.921 148.958ZM104.17 149.472L105.269 147.79C105.674 147.17 105.828 146.607 105.729 146.099C105.623 145.586 105.315 145.162 104.805 144.827C104.287 144.486 103.785 144.377 103.298 144.5C102.817 144.614 102.372 144.985 101.961 145.613L100.861 147.295L104.17 149.472Z" fill="white"/>
<path d="M110.344 132.438C111.064 131.554 111.852 130.926 112.71 130.554C113.566 130.167 114.439 130.053 115.33 130.21C116.226 130.36 117.09 130.773 117.92 131.448C118.749 132.123 119.329 132.885 119.657 133.733C119.985 134.566 120.046 135.441 119.841 136.358C119.635 137.26 119.173 138.154 118.453 139.038L116.398 141.562L108.289 134.963L110.344 132.438ZM117.581 138.328C118.433 137.281 118.808 136.258 118.705 135.259C118.595 134.254 118.039 133.344 117.039 132.53C116.031 131.709 115.016 131.348 113.995 131.445C112.981 131.535 112.051 132.1 111.205 133.139L110.012 134.605L116.387 139.794L117.581 138.328Z" fill="white"/>
<path d="M126.784 129.684L121.95 128.606L120.827 129.815L123.967 132.717L123.038 133.717L115.36 126.62L117.657 124.147C118.195 123.569 118.747 123.173 119.312 122.961C119.885 122.741 120.432 122.688 120.954 122.803C121.475 122.917 121.953 123.175 122.386 123.575C122.915 124.064 123.238 124.649 123.356 125.33C123.481 126.004 123.327 126.706 122.894 127.436L127.897 128.486L126.784 129.684ZM120.023 129.072L121.391 127.599C121.895 127.057 122.14 126.528 122.128 126.013C122.108 125.49 121.874 125.022 121.426 124.608C120.971 124.187 120.493 123.997 119.991 124.037C119.496 124.07 118.994 124.362 118.483 124.911L117.115 126.384L120.023 129.072Z" fill="white"/>
<path d="M123.768 119.586L126.195 122.1L128.948 119.466L129.729 120.275L126.977 122.91L129.477 125.499L132.554 122.554L133.336 123.363L129.272 127.253L122 119.72L126.064 115.831L126.845 116.64L123.768 119.586Z" fill="white"/>
<path d="M138.574 115.857L135.094 118.804L135.967 121.112L134.868 122.043L130.986 111.709L132.187 110.691L141.827 116.148L140.728 117.079L138.574 115.857ZM137.554 115.266L132.674 112.48L134.669 117.709L137.554 115.266Z" fill="white"/>
<path d="M145.151 100.961L151.343 109.292L150.241 110.097L145.624 103.885L147.456 112.133L146.681 112.699L139.257 108.52L143.883 114.744L142.781 115.549L136.589 107.219L137.776 106.351L145.995 110.971L143.976 101.82L145.151 100.961Z" fill="white"/>
<path d="M155.142 107.225C154.558 107.593 153.968 107.822 153.373 107.913C152.781 107.991 152.237 107.931 151.742 107.735C151.242 107.53 150.833 107.19 150.516 106.716L151.748 105.941C152.055 106.327 152.449 106.569 152.929 106.669C153.412 106.754 153.942 106.616 154.517 106.254C155.067 105.908 155.412 105.501 155.552 105.035C155.695 104.555 155.629 104.101 155.353 103.672C155.137 103.336 154.868 103.121 154.546 103.028C154.225 102.935 153.889 102.921 153.54 102.988C153.19 103.054 152.738 103.174 152.182 103.346C151.501 103.562 150.934 103.706 150.481 103.779C150.037 103.846 149.585 103.799 149.125 103.639C148.669 103.466 148.265 103.106 147.913 102.559C147.605 102.08 147.454 101.578 147.462 101.053C147.469 100.529 147.628 100.027 147.938 99.5484C148.257 99.0642 148.704 98.641 149.279 98.2788C150.109 97.7568 150.918 97.5367 151.708 97.6186C152.506 97.6951 153.159 98.0526 153.665 98.6912L152.395 99.4902C152.136 99.1804 151.769 98.998 151.294 98.9427C150.813 98.8791 150.314 99.0098 149.798 99.3347C149.316 99.6383 149.003 100.012 148.861 100.456C148.713 100.892 148.783 101.333 149.069 101.778C149.275 102.098 149.532 102.303 149.839 102.393C150.155 102.477 150.48 102.492 150.812 102.436C151.148 102.366 151.6 102.247 152.169 102.078C152.856 101.87 153.429 101.734 153.887 101.67C154.34 101.598 154.799 101.646 155.264 101.814C155.723 101.974 156.131 102.331 156.488 102.886C156.764 103.315 156.91 103.791 156.925 104.313C156.94 104.835 156.799 105.356 156.502 105.873C156.205 106.391 155.751 106.842 155.142 107.225Z" fill="white"/>
<path d="M162.201 97.0873C161.741 96.177 161.534 95.2592 161.582 94.3339C161.625 93.3996 161.898 92.5534 162.399 91.7952C162.91 91.0326 163.601 90.4378 164.472 90.0109C165.496 89.5092 166.513 89.3167 167.525 89.4335C168.536 89.5502 169.445 89.9735 170.251 90.7032L168.783 91.4228C168.238 90.9882 167.642 90.7402 166.995 90.6788C166.356 90.613 165.696 90.7474 165.014 91.0819C164.358 91.4031 163.847 91.8431 163.479 92.4018C163.112 92.9605 162.922 93.5936 162.91 94.301C162.893 94.9996 163.075 95.7237 163.454 96.4733C163.828 97.2141 164.306 97.7929 164.886 98.2099C165.462 98.618 166.087 98.8461 166.761 98.8943C167.436 98.9425 168.101 98.8059 168.756 98.4847C169.438 98.1502 169.948 97.7169 170.284 97.1847C170.624 96.6392 170.782 96.0215 170.759 95.3317L172.227 94.6121C172.328 95.6762 172.121 96.6407 171.606 97.5056C171.086 98.3616 170.314 99.0405 169.291 99.5422C168.42 99.9691 167.523 100.158 166.602 100.108C165.685 100.045 164.837 99.7538 164.059 99.2334C163.28 98.7129 162.661 97.9976 162.201 97.0873Z" fill="white"/>
<path d="M179.353 95.245C178.453 95.6069 177.545 95.7295 176.629 95.6127C175.71 95.4868 174.876 95.1378 174.127 94.5659C173.384 93.9809 172.816 93.2179 172.422 92.2769C172.029 91.3358 171.889 90.4058 172.004 89.4869C172.123 88.555 172.468 87.7323 173.036 87.0187C173.601 86.2958 174.333 85.7535 175.233 85.3916C176.143 85.026 177.057 84.9062 177.977 85.0321C178.893 85.1489 179.72 85.4951 180.459 86.0708C181.199 86.6465 181.767 87.4095 182.164 88.3598C182.562 89.3101 182.703 90.2447 182.589 91.1636C182.474 92.0825 182.135 92.9034 181.57 93.6262C181.001 94.3398 180.262 94.8794 179.353 95.245ZM178.896 94.1518C179.573 93.8794 180.116 93.4782 180.523 92.9482C180.939 92.4144 181.178 91.7953 181.242 91.091C181.314 90.3829 181.19 89.646 180.87 88.8802C180.546 88.1052 180.107 87.4951 179.552 87.0499C179.003 86.5918 178.394 86.3141 177.724 86.2168C177.055 86.1195 176.377 86.2088 175.691 86.4849C175.004 86.761 174.457 87.164 174.05 87.6941C173.643 88.2241 173.404 88.8432 173.331 89.5513C173.264 90.2464 173.393 90.9815 173.717 91.7565C174.037 92.5222 174.471 93.1342 175.021 93.5923C175.579 94.0467 176.193 94.3226 176.862 94.4199C177.541 94.5135 178.219 94.4241 178.896 94.1518Z" fill="white"/>
<path d="M191.944 79.9807L195.226 89.8282L193.924 90.2406L191.477 82.8976L190.636 91.2828L189.721 91.5728L183.966 85.2623L186.417 92.6195L185.116 93.0319L181.834 83.1844L183.236 82.7403L189.609 89.7201L190.557 80.4202L191.944 79.9807Z" fill="white"/>
<path d="M195.254 80.3846L196.138 83.7659L199.839 82.8594L200.123 83.9478L196.423 84.8543L197.333 88.3372L201.471 87.3237L201.756 88.4121L196.292 89.7504L193.644 79.6209L199.107 78.2826L199.392 79.371L195.254 80.3846Z" fill="white"/>
<path d="M214.857 75.6621L215.036 76.7576L212.217 77.1718L213.723 86.3947L212.372 86.5931L210.866 77.3702L208.032 77.7866L207.853 76.6911L214.857 75.6621Z" fill="white"/>
<path d="M223.963 85.3731L221.038 81.3403L219.395 81.4855L219.839 85.7373L218.479 85.8574L217.392 75.459L220.754 75.1621C221.541 75.0926 222.218 75.1684 222.784 75.3895C223.36 75.6096 223.806 75.9366 224.123 76.3703C224.44 76.8041 224.629 77.3144 224.69 77.9012C224.765 78.6173 224.622 79.2673 224.26 79.8513C223.909 80.4343 223.329 80.8519 222.521 81.1039L225.591 85.2293L223.963 85.3731ZM219.281 80.3964L221.283 80.2196C222.02 80.1545 222.554 79.9266 222.885 79.5361C223.215 79.1355 223.349 78.6319 223.285 78.0252C223.221 77.4086 222.987 76.9474 222.583 76.6418C222.189 76.3353 221.618 76.2151 220.871 76.281L218.869 76.4578L219.281 80.3964Z" fill="white"/>
<path d="M228.376 74.7527L228.654 81.3619C228.693 82.2911 228.947 82.9746 229.416 83.4124C229.894 83.85 230.539 84.0582 231.348 84.037C232.148 84.0161 232.763 83.775 233.194 83.3136C233.635 82.852 233.836 82.1566 233.797 81.2274L233.519 74.6182L234.884 74.5825L235.161 81.1767C235.198 82.046 235.053 82.7849 234.729 83.3935C234.404 83.9921 233.947 84.4442 233.36 84.7496C232.782 85.0548 232.123 85.217 231.384 85.2364C230.644 85.2557 229.968 85.1284 229.356 84.8543C228.754 84.58 228.266 84.1527 227.891 83.5723C227.526 82.9817 227.325 82.2518 227.289 81.3826L227.012 74.7884L228.376 74.7527Z" fill="white"/>
<path d="M238.731 75.8761L238.667 79.3705L242.475 79.4982L242.455 80.623L238.647 80.4953L238.582 84.0947L242.839 84.2375L242.819 85.3624L237.197 85.1738L237.387 74.7055L243.008 74.8941L242.988 76.0189L238.731 75.8761Z" fill="white"/>
<path d="M252.97 87.9914L251.615 87.8299L253.02 74.3882L254.375 74.5497L252.97 87.9914Z" fill="white"/>
<path d="M267.458 89.087C266.51 88.883 265.689 88.4763 264.996 87.8669C264.305 87.2477 263.81 86.4916 263.51 85.5988C263.223 84.6982 263.18 83.748 263.382 82.7481C263.583 81.7483 263.989 80.8997 264.599 80.2025C265.221 79.4975 265.967 79.0087 266.838 78.7358C267.711 78.4532 268.622 78.4139 269.57 78.618C270.528 78.8241 271.353 79.2368 272.044 79.856C272.737 80.4654 273.228 81.2155 273.518 82.1062C273.807 82.997 273.85 83.9472 273.647 84.9569C273.443 85.9666 273.036 86.82 272.426 87.5172C271.816 88.2145 271.075 88.7044 270.202 88.987C269.331 89.2599 268.416 89.2932 267.458 89.087ZM267.692 87.9254C268.406 88.079 269.08 88.0502 269.714 87.8389C270.358 87.6297 270.904 87.251 271.351 86.7029C271.808 86.1569 272.119 85.477 272.283 84.6634C272.449 83.84 272.427 83.0887 272.217 82.4094C272.019 81.7224 271.67 81.1513 271.171 80.696C270.671 80.2407 270.059 79.9352 269.336 79.7796C268.612 79.6239 267.933 79.6517 267.299 79.863C266.665 80.0743 266.119 80.4529 265.662 80.9989C265.217 81.5373 264.911 82.2182 264.745 83.0416C264.581 83.8552 264.598 84.6055 264.796 85.2924C265.004 85.9815 265.358 86.5537 265.858 87.009C266.367 87.4664 266.979 87.7719 267.692 87.9254Z" fill="white"/>
<path d="M277.648 80.807L275.894 87.1854C275.648 88.0822 275.681 88.8096 275.995 89.3677C276.317 89.9286 276.868 90.3209 277.647 90.5445C278.416 90.7653 279.076 90.7209 279.628 90.4112C280.189 90.1043 280.593 89.5024 280.84 88.6057L282.593 82.2273L283.905 82.6041L282.155 88.968C281.925 89.8069 281.562 90.4673 281.066 90.9493C280.574 91.4216 280.001 91.7147 279.347 91.8287C278.703 91.9455 278.025 91.9017 277.314 91.6974C276.603 91.4931 275.997 91.1684 275.498 90.7231C275.007 90.2806 274.672 89.7266 274.492 89.0611C274.324 88.3887 274.356 87.633 274.586 86.7941L276.336 80.4302L277.648 80.807Z" fill="white"/>
<path d="M288.091 95.2255L287.134 90.3499L285.579 89.7981L284.19 93.8411L282.903 93.3846L286.301 83.4972L289.482 84.6258C290.226 84.89 290.809 85.2401 291.23 85.676C291.661 86.1152 291.929 86.5975 292.034 87.1229C292.139 87.6482 292.095 88.1898 291.904 88.7478C291.67 89.4287 291.265 89.959 290.691 90.3387C290.126 90.7217 289.423 90.8596 288.582 90.7522L289.632 95.7723L288.091 95.2255ZM285.935 88.7626L287.829 89.4348C288.527 89.6822 289.108 89.6976 289.574 89.4809C290.043 89.2547 290.376 88.8532 290.575 88.2763C290.776 87.6899 290.758 87.1741 290.52 86.7288C290.291 86.2869 289.823 85.9405 289.116 85.6897L287.222 85.0176L285.935 88.7626Z" fill="white"/>
<path d="M310.711 94.0394L306.295 103.433L305.063 102.844L308.356 95.8392L301.952 101.354L301.086 100.94L301.26 92.4251L297.96 99.4433L296.729 98.8539L301.145 89.4601L302.471 90.0948L302.284 99.5178L309.398 93.4111L310.711 94.0394Z" fill="white"/>
<path d="M311.252 106.545C310.41 106.063 309.753 105.427 309.281 104.638C308.813 103.84 308.575 102.972 308.567 102.034C308.572 101.091 308.826 100.177 309.329 99.2892C309.831 98.4017 310.482 97.7199 311.28 97.2438C312.092 96.764 312.956 96.5272 313.872 96.5333C314.793 96.5308 315.674 96.7706 316.516 97.2528C317.366 97.74 318.025 98.3825 318.493 99.1805C318.965 99.9697 319.201 100.831 319.201 101.764C319.201 102.698 318.947 103.613 318.439 104.509C317.932 105.405 317.278 106.091 316.48 106.567C315.682 107.043 314.822 107.283 313.901 107.285C312.985 107.279 312.102 107.032 311.252 106.545ZM311.836 105.514C312.469 105.877 313.121 106.055 313.792 106.047C314.472 106.045 315.11 105.851 315.707 105.467C316.312 105.088 316.82 104.538 317.229 103.815C317.643 103.085 317.855 102.365 317.866 101.656C317.89 100.944 317.734 100.296 317.399 99.7119C317.063 99.1277 316.574 98.6517 315.932 98.2839C315.29 97.916 314.633 97.7358 313.963 97.7433C313.292 97.7508 312.653 97.9441 312.048 98.3233C311.456 98.6987 310.953 99.2518 310.539 99.9827C310.13 100.705 309.913 101.422 309.889 102.134C309.873 102.851 310.033 103.502 310.369 104.086C310.714 104.675 311.202 105.151 311.836 105.514Z" fill="white"/>
<path d="M327.817 104.601L327.208 105.53L324.83 103.959L319.703 111.773L318.564 111.021L323.69 103.207L321.299 101.629L321.908 100.701L327.817 104.601Z" fill="white"/>
<path d="M327.365 117.466C326.591 116.882 326.02 116.169 325.652 115.328C325.291 114.478 325.166 113.589 325.278 112.659C325.405 111.727 325.775 110.853 326.389 110.039C327.003 109.224 327.737 108.632 328.592 108.262C329.46 107.891 330.349 107.766 331.259 107.889C332.174 108.003 333.019 108.353 333.793 108.937C334.575 109.528 335.147 110.248 335.509 111.097C335.876 111.938 336 112.821 335.88 113.745C335.759 114.669 335.389 115.542 334.769 116.365C334.149 117.187 333.412 117.784 332.557 118.153C331.703 118.523 330.818 118.651 329.902 118.536C328.993 118.413 328.147 118.057 327.365 117.466ZM328.078 116.52C328.661 116.96 329.286 117.219 329.953 117.297C330.629 117.381 331.288 117.27 331.931 116.966C332.581 116.668 333.156 116.187 333.656 115.524C334.161 114.854 334.465 114.168 334.567 113.468C334.683 112.766 334.611 112.105 334.353 111.484C334.095 110.863 333.67 110.33 333.08 109.884C332.489 109.438 331.86 109.176 331.192 109.098C330.525 109.02 329.866 109.13 329.215 109.429C328.579 109.725 328.008 110.208 327.502 110.879C327.003 111.542 326.695 112.224 326.579 112.926C326.471 113.634 326.547 114.299 326.805 114.92C327.071 115.547 327.496 116.08 328.078 116.52Z" fill="white"/>
<path d="M342.119 120.57L340.991 119.537L344.358 118.003L345.077 118.662L342.119 120.57ZM343.912 122.211L342.783 121.178L346.15 119.644L346.869 120.303L343.912 122.211Z" fill="white"/>
<path d="M358.262 132.256L351.138 134.113L348.214 136.761L347.293 135.754L350.217 133.106L352.734 126.213L353.756 127.331L351.573 132.789L357.239 131.138L358.262 132.256Z" fill="white"/>
<path d="M354.467 144.404C353.86 143.648 353.483 142.818 353.336 141.914C353.196 141.005 353.298 140.116 353.639 139.247C353.995 138.38 354.573 137.63 355.374 136.998C356.174 136.366 357.036 135.978 357.959 135.835C358.897 135.693 359.792 135.795 360.645 136.14C361.507 136.48 362.241 137.028 362.847 137.784C363.46 138.549 363.836 139.386 363.976 140.296C364.123 141.199 364.023 142.081 363.675 142.942C363.327 143.803 362.749 144.553 361.94 145.191C361.132 145.829 360.266 146.22 359.343 146.363C358.42 146.507 357.527 146.409 356.666 146.069C355.813 145.724 355.08 145.169 354.467 144.404ZM355.396 143.67C355.853 144.24 356.396 144.645 357.026 144.887C357.661 145.137 358.33 145.195 359.03 145.062C359.737 144.937 360.417 144.617 361.068 144.103C361.727 143.582 362.194 142.997 362.467 142.347C362.755 141.699 362.851 141.043 362.756 140.38C362.66 139.717 362.38 139.096 361.917 138.519C361.455 137.942 360.909 137.532 360.279 137.29C359.649 137.048 358.981 136.99 358.274 137.115C357.581 137.242 356.905 137.566 356.246 138.086C355.595 138.601 355.125 139.182 354.837 139.83C354.555 140.486 354.462 141.146 354.558 141.809C354.661 142.48 354.94 143.1 355.396 143.67Z" fill="white"/>
<path d="M367.751 144.592L362.289 148.323C361.521 148.847 361.079 149.421 360.965 150.044C360.856 150.675 361.033 151.323 361.496 151.988C361.953 152.645 362.496 153.031 363.125 153.146C363.759 153.27 364.46 153.07 365.228 152.545L370.691 148.815L371.471 149.935L366.02 153.657C365.302 154.148 364.595 154.419 363.9 154.47C363.212 154.515 362.578 154.374 361.995 154.045C361.419 153.724 360.919 153.26 360.496 152.653C360.074 152.045 359.81 151.414 359.707 150.758C359.61 150.11 359.704 149.476 359.992 148.856C360.293 148.239 360.803 147.685 361.521 147.194L366.972 143.472L367.751 144.592Z" fill="white"/>
<path d="M377.579 160.36C378.13 161.358 378.417 162.322 378.44 163.252C378.476 164.186 378.252 165.033 377.769 165.792C377.291 166.56 376.58 167.197 375.638 167.703C374.695 168.21 373.767 168.453 372.854 168.433C371.954 168.417 371.116 168.141 370.34 167.604C369.577 167.072 368.92 166.306 368.369 165.309L366.796 162.459L376.006 157.511L377.579 160.36ZM369.36 164.776C370.013 165.958 370.824 166.691 371.792 166.977C372.77 167.258 373.827 167.093 374.963 166.482C376.108 165.867 376.828 165.071 377.123 164.096C377.423 163.129 377.249 162.059 376.601 160.886L375.688 159.231L368.447 163.122L369.36 164.776Z" fill="white"/>
<path d="M380.749 168.996L377.573 170.454L379.207 173.896L378.184 174.365L376.551 170.923L373.279 172.425L375.106 176.273L374.083 176.743L371.671 171.661L381.186 167.293L383.599 172.375L382.576 172.844L380.749 168.996Z" fill="white"/>
<path d="M376.311 182.422C376.051 181.783 375.929 181.165 375.946 180.568C375.975 179.977 376.132 179.459 376.416 179.016C376.709 178.569 377.119 178.237 377.647 178.02L378.194 179.368C377.757 179.593 377.445 179.929 377.26 180.377C377.089 180.83 377.131 181.372 377.387 182.002C377.631 182.604 377.972 183.019 378.41 183.245C378.86 183.477 379.323 183.5 379.798 183.315C380.171 183.17 380.432 182.95 380.582 182.655C380.732 182.36 380.806 182.036 380.803 181.683C380.799 181.33 380.762 180.867 380.691 180.294C380.599 179.589 380.558 179.009 380.567 178.555C380.581 178.11 380.708 177.679 380.949 177.263C381.203 176.852 381.633 176.529 382.239 176.293C382.77 176.086 383.295 176.036 383.814 176.145C384.333 176.254 384.802 176.505 385.221 176.9C385.644 177.304 385.984 177.82 386.24 178.45C386.609 179.358 386.682 180.189 386.459 180.941C386.239 181.703 385.767 182.268 385.043 182.637L384.478 181.247C384.832 181.055 385.079 180.733 385.219 180.282C385.369 179.826 385.329 179.316 385.099 178.751C384.885 178.223 384.57 177.846 384.155 177.622C383.749 177.394 383.299 177.376 382.806 177.569C382.452 177.707 382.202 177.917 382.058 178.199C381.917 178.49 381.845 178.803 381.84 179.137C381.849 179.477 381.886 179.94 381.951 180.526C382.034 181.235 382.066 181.818 382.047 182.276C382.038 182.731 381.908 183.168 381.657 183.588C381.416 184.004 380.988 184.332 380.373 184.572C379.898 184.757 379.4 184.807 378.879 184.72C378.359 184.633 377.868 184.396 377.408 184.006C376.947 183.617 376.582 183.089 376.311 182.422Z" fill="white"/>
<path d="M388.816 185.806L378.9 189.12L378.448 187.831L388.364 184.518L388.816 185.806Z" fill="white"/>
<path d="M381.844 198.568L385.253 195.028L384.784 193.446L380.668 194.598L380.28 193.29L390.347 190.471L391.307 193.706C391.531 194.464 391.59 195.138 391.484 195.728C391.38 196.328 391.145 196.82 390.779 197.203C390.413 197.586 389.945 197.857 389.377 198.016C388.684 198.21 388.013 198.18 387.364 197.926C386.718 197.681 386.19 197.185 385.781 196.438L382.309 200.135L381.844 198.568ZM385.839 193.15L386.41 195.078C386.62 195.787 386.951 196.271 387.403 196.528C387.865 196.783 388.389 196.829 388.977 196.664C389.574 196.497 389.983 196.19 390.205 195.744C390.431 195.307 390.436 194.729 390.223 194.01L389.652 192.083L385.839 193.15Z" fill="white"/>
<path d="M392.157 201.357L388.743 202.103L389.614 205.812L388.515 206.052L387.644 202.343L384.127 203.111L385.101 207.258L384.002 207.498L382.716 202.022L392.944 199.788L394.231 205.264L393.132 205.504L392.157 201.357Z" fill="white"/>
<path d="M397.504 227.802L386.739 225.898L386.553 224.38L394.626 221.08L385.951 219.466L385.752 217.964L395.809 213.956L395.985 215.4L387.447 218.599L396.569 220.164L396.754 221.683L388.26 224.998L397.325 226.343L397.504 227.802Z" fill="white"/>
<path d="M396.252 229.822L392.759 229.945L392.953 233.75L391.829 233.79L391.634 229.985L388.037 230.111L388.254 234.366L387.13 234.405L386.843 228.788L397.306 228.419L397.594 234.037L396.469 234.076L396.252 229.822Z" fill="white"/>
<path d="M397.354 246.849C397.298 247.988 397.034 248.958 396.564 249.759C396.103 250.571 395.467 251.17 394.657 251.559C393.846 251.957 392.907 252.121 391.839 252.052C390.771 251.983 389.855 251.697 389.089 251.197C388.332 250.707 387.765 250.029 387.388 249.162C387.02 248.307 386.865 247.31 386.921 246.171L387.083 242.92L397.516 243.598L397.354 246.849ZM388.044 246.244C387.977 247.592 388.28 248.644 388.953 249.399C389.636 250.155 390.621 250.575 391.909 250.659C393.206 250.743 394.237 250.449 395.001 249.777C395.765 249.116 396.18 248.116 396.247 246.777L396.341 244.89L388.138 244.356L388.044 246.244Z" fill="white"/>
<path d="M395.507 255.768L392.039 255.327L391.613 259.113L390.497 258.971L390.923 255.185L387.352 254.731L386.875 258.964L385.759 258.822L386.389 253.232L396.775 254.554L396.145 260.143L395.029 260.002L395.507 255.768Z" fill="white"/>
<path d="M384.659 264.76C384.776 264.08 384.999 263.49 385.328 262.992C385.665 262.506 386.072 262.149 386.547 261.922C387.032 261.697 387.556 261.632 388.118 261.726L387.871 263.16C387.381 263.12 386.939 263.241 386.545 263.524C386.16 263.818 385.909 264.301 385.794 264.971C385.684 265.611 385.755 266.143 386.006 266.566C386.266 267.001 386.647 267.265 387.149 267.358C387.542 267.431 387.88 267.382 388.163 267.211C388.446 267.04 388.68 266.804 388.863 266.503C389.047 266.201 389.26 265.788 389.503 265.264C389.797 264.617 390.068 264.102 390.316 263.721C390.563 263.35 390.898 263.052 391.323 262.825C391.755 262.611 392.291 262.563 392.93 262.682C393.49 262.786 393.962 263.021 394.346 263.388C394.729 263.754 394.995 264.215 395.142 264.771C395.289 265.338 395.304 265.956 395.189 266.626C395.022 267.592 394.646 268.335 394.059 268.857C393.47 269.388 392.771 269.619 391.961 269.55L392.216 268.072C392.617 268.095 392.997 267.953 393.355 267.643C393.722 267.335 393.958 266.88 394.061 266.279C394.158 265.717 394.089 265.232 393.855 264.822C393.631 264.414 393.259 264.162 392.738 264.065C392.364 263.995 392.041 264.042 391.77 264.205C391.497 264.378 391.27 264.606 391.089 264.887C390.917 265.181 390.704 265.594 390.45 266.126C390.146 266.772 389.865 267.284 389.607 267.663C389.359 268.044 389.018 268.347 388.583 268.571C388.159 268.797 387.622 268.85 386.973 268.729C386.472 268.636 386.023 268.415 385.626 268.067C385.23 267.719 384.939 267.258 384.753 266.684C384.568 266.111 384.536 265.469 384.659 264.76Z" fill="white"/>
<path d="M393.502 274.153L383.328 271.744L383.626 270.412L393.8 272.821L393.502 274.153Z" fill="white"/>
<path d="M387.284 285.664C387.948 285.558 388.514 285.288 388.98 284.852C389.456 284.419 389.794 283.852 389.993 283.149C390.192 282.447 390.209 281.764 390.044 281.1C389.886 280.448 389.551 279.87 389.04 279.364C388.535 278.871 387.89 278.508 387.104 278.275C386.317 278.042 385.582 277.997 384.897 278.139C384.21 278.29 383.624 278.596 383.14 279.058C382.663 279.532 382.324 280.12 382.125 280.822C381.847 281.803 381.91 282.698 382.315 283.506C382.72 284.314 383.406 284.919 384.373 285.319L385.511 281.308L386.575 281.622L385.041 287.034L384.034 286.736C383.231 286.415 382.547 285.931 381.982 285.285C381.427 284.641 381.05 283.898 380.852 283.058C380.663 282.22 380.695 281.358 380.946 280.473C381.21 279.54 381.668 278.752 382.317 278.11C382.977 277.471 383.759 277.041 384.664 276.818C385.566 276.605 386.506 276.644 387.484 276.933C388.462 277.222 389.277 277.703 389.928 278.375C390.586 279.06 391.022 279.851 391.235 280.748C391.458 281.648 391.437 282.565 391.173 283.498C390.87 284.566 390.339 285.431 389.579 286.093C388.817 286.764 387.904 287.146 386.838 287.237L387.284 285.664Z" fill="white"/>
<path d="M376.364 294.125L376.829 292.842L386.499 290.592L378.7 287.681L379.166 286.397L388.974 290.059L388.509 291.343L378.853 293.597L386.638 296.504L386.173 297.787L376.364 294.125Z" fill="white"/>
<path d="M384.953 300.43L384.358 301.823L381.804 299.134L382.182 298.252L384.953 300.43ZM383.998 302.664L383.402 304.057L380.849 301.369L381.232 300.472L383.998 302.664Z" fill="white"/>
</svg>
