<svg width="156" height="156" viewBox="0 0 156 156" fill="none" xmlns="http://www.w3.org/2000/svg">
<g clip-path="url(#clip0_1135_3)">
<path fill-rule="evenodd" clip-rule="evenodd" d="M78 0C34.9781 0 0 34.9781 0 78C0 121.022 34.9781 156 78 156C121.022 156 156 121.022 156 78C156 34.9781 121.022 0 78 0Z" fill="#4BAE4F"/>
<path fill-rule="evenodd" clip-rule="evenodd" d="M115.721 51.7053C117.61 53.5943 117.61 56.7022 115.721 58.5912L70.0176 104.294C69.073 105.239 67.8238 105.726 66.5746 105.726C65.3254 105.726 64.0762 105.239 63.1316 104.294L40.2801 81.4428C38.391 79.5537 38.391 76.4459 40.2801 74.5568C42.1691 72.6678 45.277 72.6678 47.166 74.5568L66.5746 93.9654L108.835 51.7053C110.724 49.7857 113.832 49.7857 115.721 51.7053Z" fill="white"/>
</g>
<defs>
<clipPath id="clip0_1135_3">
<rect width="156" height="156" fill="white"/>
</clipPath>
</defs>
</svg>
