<svg width="36" height="37" viewBox="0 0 36 37" fill="none" xmlns="http://www.w3.org/2000/svg">
<path d="M32.8359 5.45898H3.16406C1.42298 5.45898 0 6.9062 0 8.69115V28.0841C0 29.8697 1.4239 31.3163 3.16406 31.3163H32.8359C34.577 31.3163 36 29.8691 36 28.0841V8.69115C36 6.90577 34.5763 5.45898 32.8359 5.45898ZM32.3501 7.61376C31.3271 8.6622 19.311 20.977 18.8173 21.4829C18.405 21.9054 17.5952 21.9057 17.1827 21.4829L3.64992 7.61376H32.3501ZM2.10938 27.688V9.08727L11.1843 18.3876L2.10938 27.688ZM3.64992 29.1615L12.6734 19.9138L15.6888 23.0041C16.9244 24.2705 19.0761 24.27 20.3113 23.0041L23.3267 19.9139L32.3501 29.1615H3.64992ZM33.8906 27.688L24.8157 18.3876L33.8906 9.08727V27.688Z" fill="white"/>
</svg>
