<svg width="32" height="31" viewBox="0 0 32 31" fill="none" xmlns="http://www.w3.org/2000/svg">
<path d="M30.2222 21.1971C27.1538 21.1971 24.2276 20.5496 21.5289 19.2717C21.1058 19.0753 20.6151 19.0443 20.1671 19.1924C19.7191 19.344 19.3529 19.6609 19.1467 20.0708L17.8667 22.6369C14.0267 20.5013 10.8409 17.4117 8.63289 13.6917L11.2853 12.4517C11.712 12.2519 12.0356 11.8971 12.192 11.4631C12.3449 11.0291 12.3164 10.5538 12.1102 10.1439C10.7876 7.533 10.1191 4.69822 10.1191 1.72222C10.1191 0.771556 9.32267 0 8.34133 0H1.77778C0.796444 0 0 0.771556 0 1.72222C0 17.8663 13.5573 31 30.2222 31C31.2036 31 32 30.2284 32 29.2778V22.9193C32 21.9687 31.2036 21.1971 30.2222 21.1971Z" fill="white"/>
</svg>
