<svg width="19" height="19" viewBox="0 0 19 19" fill="none" xmlns="http://www.w3.org/2000/svg">
<path d="M17.9444 12.9918C16.1226 12.9918 14.3851 12.5949 12.7828 11.8117C12.5316 11.6913 12.2402 11.6723 11.9742 11.7631C11.7082 11.856 11.4908 12.0502 11.3683 12.3014L10.6083 13.8742C8.32833 12.5653 6.43678 10.6717 5.12578 8.39167L6.70067 7.63167C6.954 7.50922 7.14611 7.29178 7.239 7.02578C7.32978 6.75978 7.31289 6.46844 7.19044 6.21722C6.40511 4.617 6.00822 2.87956 6.00822 1.05556C6.00822 0.472889 5.53533 0 4.95267 0H1.05556C0.472889 0 0 0.472889 0 1.05556C0 10.9503 8.04967 19 17.9444 19C18.5271 19 19 18.5271 19 17.9444V14.0473C19 13.4647 18.5271 12.9918 17.9444 12.9918Z" fill="white"/>
</svg>
